<svg xmlns="http://www.w3.org/2000/svg" viewBox="0 0 800 200" width="800" height="200">
  <defs>
    <style>
      @import url('https://fonts.googleapis.com/css2?family=JetBrains+Mono:wght@400;700&amp;family=Inter:wght@400&amp;display=swap');
    </style>
  </defs>

  <rect width="800" height="200" fill="#fafafa"/>

  <!-- Mnemonic word background decoration -->
  <g font-family="'JetBrains Mono', monospace" font-size="11" fill="#16a34a">
    <text x="12" y="18" opacity="0.08">abandon</text>
    <text x="120" y="14" opacity="0.06">crystal</text>
    <text x="230" y="20" opacity="0.10">wallet</text>
    <text x="340" y="16" opacity="0.07">shield</text>
    <text x="450" y="22" opacity="0.12">anchor</text>
    <text x="560" y="12" opacity="0.08">derive</text>
    <text x="670" y="19" opacity="0.06">voyage</text>
    <text x="750" y="15" opacity="0.09">seed</text>

    <text x="30" y="38" opacity="0.07">fabric</text>
    <text x="150" y="42" opacity="0.11">circuit</text>
    <text x="270" y="36" opacity="0.06">phrase</text>
    <text x="380" y="40" opacity="0.09">summit</text>
    <text x="500" y="34" opacity="0.08">token</text>
    <text x="600" y="44" opacity="0.12">pilot</text>
    <text x="710" y="38" opacity="0.07">ocean</text>

    <text x="18" y="58" opacity="0.10">harvest</text>
    <text x="140" y="62" opacity="0.07">dragon</text>
    <text x="260" y="56" opacity="0.09">verify</text>
    <text x="370" y="60" opacity="0.06">random</text>
    <text x="490" y="64" opacity="0.11">render</text>
    <text x="580" y="58" opacity="0.08">spirit</text>
    <text x="700" y="62" opacity="0.06">twelve</text>

    <text x="40" y="78" opacity="0.08">palace</text>
    <text x="160" y="82" opacity="0.06">recall</text>
    <text x="280" y="76" opacity="0.12">secret</text>
    <text x="400" y="80" opacity="0.07">tunnel</text>
    <text x="510" y="84" opacity="0.09">valley</text>
    <text x="620" y="78" opacity="0.06">symbol</text>
    <text x="730" y="82" opacity="0.10">orbit</text>

    <text x="10" y="98" opacity="0.06">enable</text>
    <text x="130" y="102" opacity="0.09">frozen</text>
    <text x="250" y="96" opacity="0.07">magnet</text>
    <text x="360" y="100" opacity="0.11">solar</text>
    <text x="470" y="104" opacity="0.06">wander</text>
    <text x="590" y="98" opacity="0.08">resist</text>
    <text x="690" y="102" opacity="0.12">steel</text>

    <text x="50" y="118" opacity="0.09">vendor</text>
    <text x="170" y="114" opacity="0.07">canyon</text>
    <text x="290" y="120" opacity="0.06">trophy</text>
    <text x="410" y="116" opacity="0.10">silent</text>
    <text x="520" y="122" opacity="0.08">marine</text>
    <text x="640" y="118" opacity="0.06">label</text>
    <text x="740" y="114" opacity="0.11">swift</text>

    <text x="20" y="138" opacity="0.07">infant</text>
    <text x="140" y="142" opacity="0.10">sketch</text>
    <text x="260" y="136" opacity="0.06">engine</text>
    <text x="380" y="140" opacity="0.08">timber</text>
    <text x="490" y="144" opacity="0.12">region</text>
    <text x="610" y="138" opacity="0.07">saddle</text>
    <text x="720" y="142" opacity="0.06">coral</text>

    <text x="35" y="158" opacity="0.11">patrol</text>
    <text x="155" y="162" opacity="0.06">govern</text>
    <text x="270" y="156" opacity="0.08">cluster</text>
    <text x="390" y="160" opacity="0.07">onion</text>
    <text x="500" y="164" opacity="0.09">barrel</text>
    <text x="620" y="158" opacity="0.06">hockey</text>
    <text x="730" y="162" opacity="0.08">lunar</text>

    <text x="15" y="178" opacity="0.06">supply</text>
    <text x="130" y="182" opacity="0.08">filter</text>
    <text x="240" y="176" opacity="0.10">ivory</text>
    <text x="350" y="180" opacity="0.06">uphold</text>
    <text x="460" y="184" opacity="0.07">neutral</text>
    <text x="580" y="178" opacity="0.12">wonder</text>
    <text x="690" y="182" opacity="0.06">torch</text>

    <text x="45" y="198" opacity="0.08">jacket</text>
    <text x="165" y="194" opacity="0.07">satoshi</text>
    <text x="285" y="200" opacity="0.06">genre</text>
    <text x="400" y="196" opacity="0.09">length</text>
    <text x="510" y="200" opacity="0.06">estate</text>
    <text x="630" y="196" opacity="0.11">zebra</text>
    <text x="740" y="200" opacity="0.07">rally</text>
  </g>

  <!-- Title -->
  <text x="400" y="115" text-anchor="middle" font-family="'JetBrains Mono', monospace" font-size="52" font-weight="700" letter-spacing="-1.5">
    <tspan fill="#1a1a1a">bit</tspan><tspan fill="#16a34a">cold</tspan>
  </text>

</svg>
