<svg xmlns="http://www.w3.org/2000/svg" viewBox="0 0 800 200" width="800" height="200">
  <defs>
    <style>
      @import url('https://fonts.googleapis.com/css2?family=JetBrains+Mono:wght@400;700&amp;family=Inter:wght@400&amp;display=swap');
    </style>
  </defs>

  <rect width="800" height="200" fill="#0a0a0a"/>

  <!-- Mnemonic word background decoration -->
  <g font-family="'JetBrains Mono', monospace" font-size="11" fill="#4ade80">
    <text x="12" y="18" opacity="0.10">abandon</text>
    <text x="120" y="14" opacity="0.08">crystal</text>
    <text x="230" y="20" opacity="0.12">wallet</text>
    <text x="340" y="16" opacity="0.09">shield</text>
    <text x="450" y="22" opacity="0.14">anchor</text>
    <text x="560" y="12" opacity="0.10">derive</text>
    <text x="670" y="19" opacity="0.08">voyage</text>
    <text x="750" y="15" opacity="0.11">seed</text>

    <text x="30" y="38" opacity="0.09">fabric</text>
    <text x="150" y="42" opacity="0.13">circuit</text>
    <text x="270" y="36" opacity="0.08">phrase</text>
    <text x="380" y="40" opacity="0.11">summit</text>
    <text x="500" y="34" opacity="0.10">token</text>
    <text x="600" y="44" opacity="0.15">pilot</text>
    <text x="710" y="38" opacity="0.09">ocean</text>

    <text x="18" y="58" opacity="0.12">harvest</text>
    <text x="140" y="62" opacity="0.09">dragon</text>
    <text x="260" y="56" opacity="0.11">verify</text>
    <text x="370" y="60" opacity="0.08">random</text>
    <text x="490" y="64" opacity="0.13">render</text>
    <text x="580" y="58" opacity="0.10">spirit</text>
    <text x="700" y="62" opacity="0.08">twelve</text>

    <text x="40" y="78" opacity="0.10">palace</text>
    <text x="160" y="82" opacity="0.08">recall</text>
    <text x="280" y="76" opacity="0.14">secret</text>
    <text x="400" y="80" opacity="0.09">tunnel</text>
    <text x="510" y="84" opacity="0.11">valley</text>
    <text x="620" y="78" opacity="0.08">symbol</text>
    <text x="730" y="82" opacity="0.12">orbit</text>

    <text x="10" y="98" opacity="0.08">enable</text>
    <text x="130" y="102" opacity="0.11">frozen</text>
    <text x="250" y="96" opacity="0.09">magnet</text>
    <text x="360" y="100" opacity="0.13">solar</text>
    <text x="470" y="104" opacity="0.08">wander</text>
    <text x="590" y="98" opacity="0.10">resist</text>
    <text x="690" y="102" opacity="0.15">steel</text>

    <text x="50" y="118" opacity="0.11">vendor</text>
    <text x="170" y="114" opacity="0.09">canyon</text>
    <text x="290" y="120" opacity="0.08">trophy</text>
    <text x="410" y="116" opacity="0.12">silent</text>
    <text x="520" y="122" opacity="0.10">marine</text>
    <text x="640" y="118" opacity="0.08">label</text>
    <text x="740" y="114" opacity="0.13">swift</text>

    <text x="20" y="138" opacity="0.09">infant</text>
    <text x="140" y="142" opacity="0.12">sketch</text>
    <text x="260" y="136" opacity="0.08">engine</text>
    <text x="380" y="140" opacity="0.10">timber</text>
    <text x="490" y="144" opacity="0.14">region</text>
    <text x="610" y="138" opacity="0.09">saddle</text>
    <text x="720" y="142" opacity="0.08">coral</text>

    <text x="35" y="158" opacity="0.13">patrol</text>
    <text x="155" y="162" opacity="0.08">govern</text>
    <text x="270" y="156" opacity="0.10">cluster</text>
    <text x="390" y="160" opacity="0.09">onion</text>
    <text x="500" y="164" opacity="0.11">barrel</text>
    <text x="620" y="158" opacity="0.08">hockey</text>
    <text x="730" y="162" opacity="0.10">lunar</text>

    <text x="15" y="178" opacity="0.08">supply</text>
    <text x="130" y="182" opacity="0.10">filter</text>
    <text x="240" y="176" opacity="0.12">ivory</text>
    <text x="350" y="180" opacity="0.08">uphold</text>
    <text x="460" y="184" opacity="0.09">neutral</text>
    <text x="580" y="178" opacity="0.15">wonder</text>
    <text x="690" y="182" opacity="0.08">torch</text>

    <text x="45" y="198" opacity="0.10">jacket</text>
    <text x="165" y="194" opacity="0.09">satoshi</text>
    <text x="285" y="200" opacity="0.08">genre</text>
    <text x="400" y="196" opacity="0.11">length</text>
    <text x="510" y="200" opacity="0.08">estate</text>
    <text x="630" y="196" opacity="0.13">zebra</text>
    <text x="740" y="200" opacity="0.09">rally</text>
  </g>

  <!-- Title -->
  <text x="400" y="115" text-anchor="middle" font-family="'JetBrains Mono', monospace" font-size="52" font-weight="700" letter-spacing="-1.5">
    <tspan fill="#e4e4e7">bit</tspan><tspan fill="#4ade80">cold</tspan>
  </text>
</svg>
